<mxfile host="app.diagrams.net" modified="2023-10-24T22:33:49.984Z" agent="Mozilla/5.0 (Windows NT 10.0; Win64; x64) AppleWebKit/537.36 (KHTML, like Gecko) Chrome/118.0.0.0 Safari/537.36 Edg/118.0.2088.61" etag="Gvu-saQFq6yEmy87MYWd" version="22.0.7" type="onedrive">
  <diagram name="Página-1" id="N2hll_dK3FadfLNK8o7I">
    <mxGraphModel grid="1" page="1" gridSize="10" guides="1" tooltips="1" connect="1" arrows="1" fold="1" pageScale="1" pageWidth="827" pageHeight="1169" math="0" shadow="0">
      <root>
        <mxCell id="0" />
        <mxCell id="1" parent="0" />
        <mxCell id="L_NLQg4w7rqkiTIONGiX-2" value="Web App&lt;br&gt;Java" style="html=1;dropTarget=0;whiteSpace=wrap;verticalAlign=top;" vertex="1" parent="1">
          <mxGeometry x="-568" y="60" width="290" height="170" as="geometry" />
        </mxCell>
        <mxCell id="L_NLQg4w7rqkiTIONGiX-3" value="" style="shape=module;jettyWidth=8;jettyHeight=4;" vertex="1" parent="L_NLQg4w7rqkiTIONGiX-2">
          <mxGeometry x="1" width="20" height="20" relative="1" as="geometry">
            <mxPoint x="-27" y="7" as="offset" />
          </mxGeometry>
        </mxCell>
        <mxCell id="L_NLQg4w7rqkiTIONGiX-4" value="Banco de Dados&lt;br&gt;SQLServer" style="html=1;dropTarget=0;whiteSpace=wrap;verticalAlign=top;" vertex="1" parent="1">
          <mxGeometry x="-188" y="100" width="160" height="90" as="geometry" />
        </mxCell>
        <mxCell id="L_NLQg4w7rqkiTIONGiX-5" value="" style="shape=module;jettyWidth=8;jettyHeight=4;" vertex="1" parent="L_NLQg4w7rqkiTIONGiX-4">
          <mxGeometry x="1" width="20" height="20" relative="1" as="geometry">
            <mxPoint x="-27" y="7" as="offset" />
          </mxGeometry>
        </mxCell>
        <mxCell id="L_NLQg4w7rqkiTIONGiX-9" value="" style="rounded=0;orthogonalLoop=1;jettySize=auto;html=1;endArrow=halfCircle;endFill=0;endSize=6;strokeWidth=1;sketch=0;exitX=0;exitY=0.5;exitDx=0;exitDy=0;" edge="1" parent="1" source="L_NLQg4w7rqkiTIONGiX-4" target="L_NLQg4w7rqkiTIONGiX-11">
          <mxGeometry relative="1" as="geometry">
            <mxPoint x="-218" y="145" as="sourcePoint" />
          </mxGeometry>
        </mxCell>
        <mxCell id="L_NLQg4w7rqkiTIONGiX-12" value="TCP (texto)" style="edgeLabel;html=1;align=center;verticalAlign=middle;resizable=0;points=[];" vertex="1" connectable="0" parent="L_NLQg4w7rqkiTIONGiX-9">
          <mxGeometry x="0.728" y="-3" relative="1" as="geometry">
            <mxPoint x="-7" y="-12" as="offset" />
          </mxGeometry>
        </mxCell>
        <mxCell id="L_NLQg4w7rqkiTIONGiX-10" value="" style="rounded=0;orthogonalLoop=1;jettySize=auto;html=1;endArrow=oval;endFill=0;sketch=0;sourcePerimeterSpacing=0;targetPerimeterSpacing=0;endSize=10;exitX=1;exitY=0.5;exitDx=0;exitDy=0;" edge="1" parent="1" source="L_NLQg4w7rqkiTIONGiX-2" target="L_NLQg4w7rqkiTIONGiX-11">
          <mxGeometry relative="1" as="geometry">
            <mxPoint x="-258" y="145" as="sourcePoint" />
          </mxGeometry>
        </mxCell>
        <mxCell id="L_NLQg4w7rqkiTIONGiX-11" value="" style="ellipse;whiteSpace=wrap;html=1;align=center;aspect=fixed;fillColor=none;strokeColor=none;resizable=0;perimeter=centerPerimeter;rotatable=0;allowArrows=0;points=[];outlineConnect=1;" vertex="1" parent="1">
          <mxGeometry x="-243" y="140" width="10" height="10" as="geometry" />
        </mxCell>
        <mxCell id="L_NLQg4w7rqkiTIONGiX-20" value="Produção" style="html=1;dropTarget=0;whiteSpace=wrap;" vertex="1" parent="1">
          <mxGeometry x="-548" y="150" width="80" height="70" as="geometry" />
        </mxCell>
        <mxCell id="L_NLQg4w7rqkiTIONGiX-21" value="" style="shape=module;jettyWidth=8;jettyHeight=4;" vertex="1" parent="L_NLQg4w7rqkiTIONGiX-20">
          <mxGeometry x="1" width="20" height="20" relative="1" as="geometry">
            <mxPoint x="-27" y="7" as="offset" />
          </mxGeometry>
        </mxCell>
        <mxCell id="L_NLQg4w7rqkiTIONGiX-23" value="Última Versão" style="html=1;dropTarget=0;whiteSpace=wrap;" vertex="1" parent="1">
          <mxGeometry x="-368" y="150" width="80" height="70" as="geometry" />
        </mxCell>
        <mxCell id="L_NLQg4w7rqkiTIONGiX-24" value="" style="shape=module;jettyWidth=8;jettyHeight=4;" vertex="1" parent="L_NLQg4w7rqkiTIONGiX-23">
          <mxGeometry x="1" width="20" height="20" relative="1" as="geometry">
            <mxPoint x="-27" y="7" as="offset" />
          </mxGeometry>
        </mxCell>
        <mxCell id="L_NLQg4w7rqkiTIONGiX-25" value="Teste" style="html=1;dropTarget=0;whiteSpace=wrap;" vertex="1" parent="1">
          <mxGeometry x="-458" y="150" width="80" height="70" as="geometry" />
        </mxCell>
        <mxCell id="L_NLQg4w7rqkiTIONGiX-26" value="" style="shape=module;jettyWidth=8;jettyHeight=4;" vertex="1" parent="L_NLQg4w7rqkiTIONGiX-25">
          <mxGeometry x="1" width="20" height="20" relative="1" as="geometry">
            <mxPoint x="-27" y="7" as="offset" />
          </mxGeometry>
        </mxCell>
        <mxCell id="L_NLQg4w7rqkiTIONGiX-27" value="Azure Active Directory&lt;br&gt;(Azure Entra ID)" style="html=1;dropTarget=0;whiteSpace=wrap;" vertex="1" parent="1">
          <mxGeometry x="-798" y="30" width="110" height="90" as="geometry" />
        </mxCell>
        <mxCell id="L_NLQg4w7rqkiTIONGiX-28" value="" style="shape=module;jettyWidth=8;jettyHeight=4;" vertex="1" parent="L_NLQg4w7rqkiTIONGiX-27">
          <mxGeometry x="1" width="20" height="20" relative="1" as="geometry">
            <mxPoint x="-27" y="7" as="offset" />
          </mxGeometry>
        </mxCell>
        <mxCell id="L_NLQg4w7rqkiTIONGiX-29" value="OAuth2" style="rounded=0;orthogonalLoop=1;jettySize=auto;html=1;endArrow=halfCircle;endFill=0;endSize=6;strokeWidth=1;sketch=0;exitX=1;exitY=0.5;exitDx=0;exitDy=0;" edge="1" parent="1" source="L_NLQg4w7rqkiTIONGiX-27" target="L_NLQg4w7rqkiTIONGiX-31">
          <mxGeometry relative="1" as="geometry">
            <mxPoint x="-628" y="145" as="sourcePoint" />
          </mxGeometry>
        </mxCell>
        <mxCell id="L_NLQg4w7rqkiTIONGiX-30" value="" style="rounded=0;orthogonalLoop=1;jettySize=auto;html=1;endArrow=oval;endFill=0;sketch=0;sourcePerimeterSpacing=0;targetPerimeterSpacing=0;endSize=10;exitX=0.008;exitY=0.357;exitDx=0;exitDy=0;exitPerimeter=0;" edge="1" parent="1" source="L_NLQg4w7rqkiTIONGiX-2" target="L_NLQg4w7rqkiTIONGiX-31">
          <mxGeometry relative="1" as="geometry">
            <mxPoint x="-668" y="145" as="sourcePoint" />
          </mxGeometry>
        </mxCell>
        <mxCell id="L_NLQg4w7rqkiTIONGiX-31" value="" style="ellipse;whiteSpace=wrap;html=1;align=center;aspect=fixed;fillColor=none;strokeColor=none;resizable=0;perimeter=centerPerimeter;rotatable=0;allowArrows=0;points=[];outlineConnect=1;" vertex="1" parent="1">
          <mxGeometry x="-628" y="80" width="10" height="10" as="geometry" />
        </mxCell>
        <mxCell id="L_NLQg4w7rqkiTIONGiX-32" value="Azure DNS" style="html=1;dropTarget=0;whiteSpace=wrap;" vertex="1" parent="1">
          <mxGeometry x="-798" y="140" width="110" height="70" as="geometry" />
        </mxCell>
        <mxCell id="L_NLQg4w7rqkiTIONGiX-33" value="" style="shape=module;jettyWidth=8;jettyHeight=4;" vertex="1" parent="L_NLQg4w7rqkiTIONGiX-32">
          <mxGeometry x="1" width="20" height="20" relative="1" as="geometry">
            <mxPoint x="-27" y="7" as="offset" />
          </mxGeometry>
        </mxCell>
        <mxCell id="L_NLQg4w7rqkiTIONGiX-34" value="DNS" style="rounded=0;orthogonalLoop=1;jettySize=auto;html=1;endArrow=halfCircle;endFill=0;endSize=6;strokeWidth=1;sketch=0;exitX=0.99;exitY=0.408;exitDx=0;exitDy=0;exitPerimeter=0;" edge="1" parent="1" source="L_NLQg4w7rqkiTIONGiX-32" target="L_NLQg4w7rqkiTIONGiX-36">
          <mxGeometry relative="1" as="geometry">
            <mxPoint x="-603" y="155" as="sourcePoint" />
          </mxGeometry>
        </mxCell>
        <mxCell id="L_NLQg4w7rqkiTIONGiX-35" value="" style="rounded=0;orthogonalLoop=1;jettySize=auto;html=1;endArrow=oval;endFill=0;sketch=0;sourcePerimeterSpacing=0;targetPerimeterSpacing=0;endSize=10;" edge="1" parent="1" source="L_NLQg4w7rqkiTIONGiX-2" target="L_NLQg4w7rqkiTIONGiX-36">
          <mxGeometry relative="1" as="geometry">
            <mxPoint x="-643" y="155" as="sourcePoint" />
          </mxGeometry>
        </mxCell>
        <mxCell id="L_NLQg4w7rqkiTIONGiX-36" value="" style="ellipse;whiteSpace=wrap;html=1;align=center;aspect=fixed;fillColor=none;strokeColor=none;resizable=0;perimeter=centerPerimeter;rotatable=0;allowArrows=0;points=[];outlineConnect=1;" vertex="1" parent="1">
          <mxGeometry x="-628" y="170" width="10" height="10" as="geometry" />
        </mxCell>
        <mxCell id="L_NLQg4w7rqkiTIONGiX-37" value="Azure Key &lt;br&gt;Vault" style="html=1;dropTarget=0;whiteSpace=wrap;" vertex="1" parent="1">
          <mxGeometry x="-798" y="220" width="110" height="60" as="geometry" />
        </mxCell>
        <mxCell id="L_NLQg4w7rqkiTIONGiX-38" value="" style="shape=module;jettyWidth=8;jettyHeight=4;" vertex="1" parent="L_NLQg4w7rqkiTIONGiX-37">
          <mxGeometry x="1" width="20" height="20" relative="1" as="geometry">
            <mxPoint x="-27" y="7" as="offset" />
          </mxGeometry>
        </mxCell>
        <mxCell id="L_NLQg4w7rqkiTIONGiX-39" value="HTTPS(API)" style="rounded=0;orthogonalLoop=1;jettySize=auto;html=1;endArrow=halfCircle;endFill=0;endSize=6;strokeWidth=1;sketch=0;exitX=1;exitY=0.5;exitDx=0;exitDy=0;" edge="1" parent="1" source="L_NLQg4w7rqkiTIONGiX-37" target="L_NLQg4w7rqkiTIONGiX-41">
          <mxGeometry x="0.1685" y="-9" relative="1" as="geometry">
            <mxPoint x="-588" y="255" as="sourcePoint" />
            <mxPoint as="offset" />
          </mxGeometry>
        </mxCell>
        <mxCell id="L_NLQg4w7rqkiTIONGiX-40" value="" style="rounded=0;orthogonalLoop=1;jettySize=auto;html=1;endArrow=oval;endFill=0;sketch=0;sourcePerimeterSpacing=0;targetPerimeterSpacing=0;endSize=10;exitX=0.001;exitY=0.782;exitDx=0;exitDy=0;exitPerimeter=0;" edge="1" parent="1" source="L_NLQg4w7rqkiTIONGiX-2" target="L_NLQg4w7rqkiTIONGiX-41">
          <mxGeometry relative="1" as="geometry">
            <mxPoint x="-628" y="255" as="sourcePoint" />
          </mxGeometry>
        </mxCell>
        <mxCell id="L_NLQg4w7rqkiTIONGiX-41" value="" style="ellipse;whiteSpace=wrap;html=1;align=center;aspect=fixed;fillColor=none;strokeColor=none;resizable=0;perimeter=centerPerimeter;rotatable=0;allowArrows=0;points=[];outlineConnect=1;" vertex="1" parent="1">
          <mxGeometry x="-628" y="230" width="10" height="10" as="geometry" />
        </mxCell>
        <mxCell id="vt-l69w1zs4HES8i7iwH-1" value="Azure Monitor" style="html=1;dropTarget=0;whiteSpace=wrap;" vertex="1" parent="1">
          <mxGeometry x="-188" y="220" width="160" height="80" as="geometry" />
        </mxCell>
        <mxCell id="vt-l69w1zs4HES8i7iwH-2" value="" style="shape=module;jettyWidth=8;jettyHeight=4;" vertex="1" parent="vt-l69w1zs4HES8i7iwH-1">
          <mxGeometry x="1" width="20" height="20" relative="1" as="geometry">
            <mxPoint x="-27" y="7" as="offset" />
          </mxGeometry>
        </mxCell>
        <mxCell id="vt-l69w1zs4HES8i7iwH-3" value="" style="rounded=0;orthogonalLoop=1;jettySize=auto;html=1;endArrow=halfCircle;endFill=0;endSize=6;strokeWidth=1;sketch=0;exitX=0;exitY=0.5;exitDx=0;exitDy=0;" edge="1" parent="1" source="vt-l69w1zs4HES8i7iwH-1" target="vt-l69w1zs4HES8i7iwH-5">
          <mxGeometry relative="1" as="geometry">
            <mxPoint x="-208" y="275" as="sourcePoint" />
          </mxGeometry>
        </mxCell>
        <mxCell id="vt-l69w1zs4HES8i7iwH-4" value="HTTP&lt;br&gt;Rest API" style="rounded=0;orthogonalLoop=1;jettySize=auto;html=1;endArrow=oval;endFill=0;sketch=0;sourcePerimeterSpacing=0;targetPerimeterSpacing=0;endSize=10;exitX=1;exitY=0.75;exitDx=0;exitDy=0;" edge="1" parent="1" source="L_NLQg4w7rqkiTIONGiX-2" target="vt-l69w1zs4HES8i7iwH-5">
          <mxGeometry relative="1" as="geometry">
            <mxPoint x="-278.00000000000017" y="138.83000000000004" as="sourcePoint" />
          </mxGeometry>
        </mxCell>
        <mxCell id="vt-l69w1zs4HES8i7iwH-5" value="" style="ellipse;whiteSpace=wrap;html=1;align=center;aspect=fixed;fillColor=none;strokeColor=none;resizable=0;perimeter=centerPerimeter;rotatable=0;allowArrows=0;points=[];outlineConnect=1;" vertex="1" parent="1">
          <mxGeometry x="-232.70999999999998" y="230" width="10" height="10" as="geometry" />
        </mxCell>
      </root>
    </mxGraphModel>
  </diagram>
</mxfile>
